<?xml version="1.0" encoding="UTF-8" standalone="no"?>
<!DOCTYPE svg PUBLIC "-//W3C//DTD SVG 1.1//EN" "http://www.w3.org/Graphics/SVG/1.1/DTD/svg11.dtd">
<svg version="1.1" xmlns="http://www.w3.org/2000/svg" xmlns:xlink="http://www.w3.org/1999/xlink" preserveAspectRatio="xMidYMid meet" viewBox="0 0 640 640" width="640" height="640"><defs><path d="M451.39 577.5L483.39 577.5L483.37 65.5L506.78 65.5L506.8 577.5L451.39 577.5ZM451.39 577.5L124.01 577.5L124.01 352.01L250.79 352L250.8 464L394.79 319.99L250.79 176L250.79 288L124.01 288.01L124.01 65.5L451.37 65.5L451.39 577.5Z" id="i1Tg4XA5H3"></path></defs><g><g><g><g><filter id="shadow2204755" x="115.01" y="56.5" width="401.8" height="531" filterUnits="userSpaceOnUse" primitiveUnits="userSpaceOnUse"><feFlood></feFlood><feComposite in2="SourceAlpha" operator="in"></feComposite><feGaussianBlur stdDeviation="1"></feGaussianBlur><feOffset dx="1" dy="1" result="afterOffset"></feOffset><feFlood flood-color="#ffffff" flood-opacity="1"></feFlood><feComposite in2="afterOffset" operator="in"></feComposite><feMorphology operator="dilate" radius="1"></feMorphology><feComposite in2="SourceAlpha" operator="out"></feComposite></filter><path d="M451.39 577.5L483.39 577.5L483.37 65.5L506.78 65.5L506.8 577.5L451.39 577.5ZM451.39 577.5L124.01 577.5L124.01 352.01L250.79 352L250.8 464L394.79 319.99L250.79 176L250.79 288L124.01 288.01L124.01 65.5L451.37 65.5L451.39 577.5Z" id="awOGi0FDR" fill="white" fill-opacity="1" filter="url(#shadow2204755)"></path></g><g><filter id="shadow8660180" x="90.01" y="31.5" width="455.8" height="585" filterUnits="userSpaceOnUse" primitiveUnits="userSpaceOnUse"><feFlood></feFlood><feComposite in2="SourceAlpha" operator="out"></feComposite><feGaussianBlur stdDeviation="3.16"></feGaussianBlur><feOffset dx="5" dy="5" result="afterOffset"></feOffset><feFlood flood-color="#000000" flood-opacity="1"></feFlood><feComposite in2="afterOffset" operator="in"></feComposite><feMorphology operator="dilate" radius="4"></feMorphology><feComposite in2="SourceAlpha" operator="in"></feComposite></filter><path d="M451.39 577.5L483.39 577.5L483.37 65.5L506.78 65.5L506.8 577.5L451.39 577.5ZM451.39 577.5L124.01 577.5L124.01 352.01L250.79 352L250.8 464L394.79 319.99L250.79 176L250.79 288L124.01 288.01L124.01 65.5L451.37 65.5L451.39 577.5Z" id="g2qrkS3Qxk" fill="white" fill-opacity="1" filter="url(#shadow8660180)"></path></g></g></g></g></svg>