<?xml version="1.0" encoding="UTF-8" standalone="no"?>
<!DOCTYPE svg PUBLIC "-//W3C//DTD SVG 1.1//EN" "http://www.w3.org/Graphics/SVG/1.1/DTD/svg11.dtd">
<svg version="1.1" xmlns="http://www.w3.org/2000/svg" xmlns:xlink="http://www.w3.org/1999/xlink" preserveAspectRatio="xMidYMid meet" viewBox="0 0 640 640" width="640" height="640"><defs><path d="M380.02 288L380.02 176L236.02 319.99L380.01 464L380.02 352L506.8 352.01L506.8 577.5L179.42 577.5L179.44 65.5L506.8 65.5L506.8 288.01L380.02 288ZM179.42 577.5L124.01 577.5L124.03 65.5L147.44 65.5L147.42 577.5L179.42 577.5Z" id="hNG9CkSK8"></path></defs><g><g><g><g><filter id="shadow9786820" x="115.01" y="56.5" width="401.8" height="531" filterUnits="userSpaceOnUse" primitiveUnits="userSpaceOnUse"><feFlood></feFlood><feComposite in2="SourceAlpha" operator="in"></feComposite><feGaussianBlur stdDeviation="1"></feGaussianBlur><feOffset dx="1" dy="1" result="afterOffset"></feOffset><feFlood flood-color="#ffffff" flood-opacity="1"></feFlood><feComposite in2="afterOffset" operator="in"></feComposite><feMorphology operator="dilate" radius="1"></feMorphology><feComposite in2="SourceAlpha" operator="out"></feComposite></filter><path d="M380.02 288L380.02 176L236.02 319.99L380.01 464L380.02 352L506.8 352.01L506.8 577.5L179.42 577.5L179.44 65.5L506.8 65.5L506.8 288.01L380.02 288ZM179.42 577.5L124.01 577.5L124.03 65.5L147.44 65.5L147.42 577.5L179.42 577.5Z" id="aBkLfCPUo" fill="white" fill-opacity="1" filter="url(#shadow9786820)"></path></g><g><filter id="shadow11601726" x="90.01" y="31.5" width="455.8" height="585" filterUnits="userSpaceOnUse" primitiveUnits="userSpaceOnUse"><feFlood></feFlood><feComposite in2="SourceAlpha" operator="out"></feComposite><feGaussianBlur stdDeviation="3.16"></feGaussianBlur><feOffset dx="5" dy="5" result="afterOffset"></feOffset><feFlood flood-color="#000000" flood-opacity="1"></feFlood><feComposite in2="afterOffset" operator="in"></feComposite><feMorphology operator="dilate" radius="4"></feMorphology><feComposite in2="SourceAlpha" operator="in"></feComposite></filter><path d="M380.02 288L380.02 176L236.02 319.99L380.01 464L380.02 352L506.8 352.01L506.8 577.5L179.42 577.5L179.44 65.5L506.8 65.5L506.8 288.01L380.02 288ZM179.42 577.5L124.01 577.5L124.03 65.5L147.44 65.5L147.42 577.5L179.42 577.5Z" id="gmx7oxfgc" fill="white" fill-opacity="1" filter="url(#shadow11601726)"></path></g></g></g></g></svg>