<svg width="8" height="8" xmlns="http://www.w3.org/2000/svg">
<!-- Created with Method Draw - http://github.com/duopixel/Method-Draw/ -->
    <symbol id="input-left" viewBox="0 0 400 400">
        <rect rx="50" id="svg_1" height="222.000432" width="222.000432" y="88.999786" x="151.309168" stroke-width="30" stroke="#000" fill="#fff" />
        <path id="svg_2" d="m28.99754,302.688171l102.712696,-102.712204l-102.712696,-102.712357l58.705631,-58.700096l161.430649,161.412453l-161.430649,161.462326" stroke-width="41" stroke="#000" fill="#fff" />
    </symbol>
    <symbol id="input-right" viewBox="0 0 400 400">
        <rect rx="50" id="svg_1" height="222" width="222.000432" y="88.999786" x="18" stroke-width="30" stroke="#000" fill="#fff" />
        <path transform="rotate(180, 259.849, 200)" id="svg_2" d="m149.78186,302.688171l102.712692,-102.712204l-102.712692,-102.712357l58.705627,-58.700096l161.430664,161.412453l-161.430664,161.462326" stroke-width="41" stroke="#000" fill="#fff" />
    </symbol>
    <symbol id="output-left" viewBox="0 0 400 400">
        <rect rx="50" id="svg_1" height="222" width="222.000432" y="89" x="159.862844" stroke-width="30" stroke="#000" fill="#fff" />
        <path transform="rotate(180, 139.909, 200)" id="svg_2" d="m29.84082,302.688171l102.712692,-102.712204l-102.712692,-102.712357l58.705627,-58.700096l161.430664,161.412453l-161.430664,161.462326" stroke-width="41" stroke="#000" fill="#fff" />
    </symbol>
    <symbol id="output-right" viewBox="0 0 400 400">
        <rect rx="50" id="svg_1" height="222.000432" width="222.000432" y="88.999786" x="17.855738" stroke-width="30" stroke="#000" fill="#fff" />
        <path id="svg_2" d="m148.70491,302.688171l102.712692,-102.712204l-102.712692,-102.712357l58.705627,-58.700096l161.430649,161.412453l-161.430649,161.462326" stroke-width="41" stroke="#000" fill="#fff" />
    </symbol>
</svg>
