<?xml version="1.0" encoding="UTF-8" standalone="no"?>
<!DOCTYPE svg PUBLIC "-//W3C//DTD SVG 1.1//EN" "http://www.w3.org/Graphics/SVG/1.1/DTD/svg11.dtd">
<svg version="1.1" xmlns="http://www.w3.org/2000/svg" xmlns:xlink="http://www.w3.org/1999/xlink" preserveAspectRatio="xMidYMid meet" viewBox="0 0 640 640" width="640" height="640"><defs><path d="M484.12 577.5L484.14 65.5L452.14 65.5L506.8 65.5L506.8 577.5L484.12 577.5ZM124.01 577.5L124.03 65.5L452.14 65.5L452.12 577.5L124.01 577.5ZM279.11 465.5L279.11 353.5L407.11 353.5L407.12 289.5L279.12 289.5L279.12 177.5L135.12 321.49L279.11 465.5Z" id="e3C65aFHsG"></path></defs><g><g><g><g><filter id="shadow7789556" x="115.01" y="56.5" width="401.8" height="531" filterUnits="userSpaceOnUse" primitiveUnits="userSpaceOnUse"><feFlood></feFlood><feComposite in2="SourceAlpha" operator="in"></feComposite><feGaussianBlur stdDeviation="1"></feGaussianBlur><feOffset dx="1" dy="1" result="afterOffset"></feOffset><feFlood flood-color="#ffffff" flood-opacity="1"></feFlood><feComposite in2="afterOffset" operator="in"></feComposite><feMorphology operator="dilate" radius="1"></feMorphology><feComposite in2="SourceAlpha" operator="out"></feComposite></filter><path d="M484.12 577.5L484.14 65.5L452.14 65.5L506.8 65.5L506.8 577.5L484.12 577.5ZM124.01 577.5L124.03 65.5L452.14 65.5L452.12 577.5L124.01 577.5ZM279.11 465.5L279.11 353.5L407.11 353.5L407.12 289.5L279.12 289.5L279.12 177.5L135.12 321.49L279.11 465.5Z" id="d2qepRG0W1" fill="white" fill-opacity="1" filter="url(#shadow7789556)"></path></g><g><filter id="shadow178934" x="90.01" y="31.5" width="455.8" height="585" filterUnits="userSpaceOnUse" primitiveUnits="userSpaceOnUse"><feFlood></feFlood><feComposite in2="SourceAlpha" operator="out"></feComposite><feGaussianBlur stdDeviation="3.16"></feGaussianBlur><feOffset dx="5" dy="5" result="afterOffset"></feOffset><feFlood flood-color="#000000" flood-opacity="1"></feFlood><feComposite in2="afterOffset" operator="in"></feComposite><feMorphology operator="dilate" radius="4"></feMorphology><feComposite in2="SourceAlpha" operator="in"></feComposite></filter><path d="M484.12 577.5L484.14 65.5L452.14 65.5L506.8 65.5L506.8 577.5L484.12 577.5ZM124.01 577.5L124.03 65.5L452.14 65.5L452.12 577.5L124.01 577.5ZM279.11 465.5L279.11 353.5L407.11 353.5L407.12 289.5L279.12 289.5L279.12 177.5L135.12 321.49L279.11 465.5Z" id="b18ZSTkp7Q" fill="white" fill-opacity="1" filter="url(#shadow178934)"></path></g></g></g></g></svg>